<svg xmlns="http://www.w3.org/2000/svg" viewBox="0 0 1000 1000" xml:space="preserve">
  <path fill="white" d="M453.01 11.21C337.54 23.1 234.17 72 153.04 153.14 75.16 231.01 28.75 325.95 12.44 439.69c-3.26 22.63-3.26 98.2 0 120.83 16.3 113.74 62.91 208.68 140.59 286.55 77.68 77.68 173 124.48 286.55 140.59 22.63 3.26 98.2 3.26 120.83 0 93.98-13.43 177.99-49.1 247.42-105.3 98.78-79.79 161.11-191.61 179.72-321.84 3.26-22.63 3.26-98.2 0-120.83-16.11-113.55-62.91-208.87-140.59-286.55C771.01 77.19 678.18 30.77 569.04 13.89c-24.16-3.64-91.48-5.37-116.03-2.68zm111.24 33.18C663.8 59.15 755.28 105 825.29 175.19c72.5 72.88 117 163.6 131.38 267.37 1.54 10.17 2.69 35.48 2.69 57.54 0 41.43-2.11 61.38-9.78 97.82-10.74 50.64-36.83 112.2-65.6 155.36-74.99 112.39-191.22 184.9-326.44 203.5-23.59 3.45-91.49 3.45-115.08 0-72.5-9.97-139.05-34.91-197.55-74.04C134.43 808.9 61.93 692.09 43.13 557.64c-3.26-23.78-3.26-93.41.19-116.04 22.06-150.95 107.6-275.23 238.02-346.2 55.81-30.3 108.37-45.84 184.13-54.47 14.01-1.53 80.37.77 98.78 3.46z"/>
    <path fill="white" d="M524.93 299.1c-1.53 3.84-101.65 341.98-104.72 353.87-1.15 4.41-1.15 4.41 23.78 4.41 22.25 0 25.13-.38 26.09-3.45C489.45 589.1 574.8 298.52 574.8 296.99c0-1.34-8.06-2.11-23.97-2.11-23.21 0-24.17.19-25.9 4.22zM261.21 427.99l-117 54.28-.38 21.87-.58 21.86 118.15 54.66c64.83 30.11 118.92 55.04 119.88 55.24 1.15.58 1.73-9.4 1.34-25.7l-.57-26.47-89.57-39.32c-49.48-21.48-89.76-39.7-89.76-40.28 0-.58 39.51-18.41 87.84-39.32 48.14-21.1 88.8-39.13 90.15-40.09 1.54-1.34 2.3-9.02 2.3-26.47 0-18.6-.58-24.74-2.3-24.74-1.35 0-55.06 24.55-119.5 54.48zm344.28-28.77v25.7l91.1 38.94c50.06 21.47 91.11 39.69 91.11 40.27 0 .77-41.05 18.8-91.11 40.28l-91.1 39.13v52.75l6.33-2.88c3.26-1.73 56.58-26.08 118.34-54.47l112.2-51.4v-46.8l-117-53.51c-64.25-29.54-117.57-53.7-118.34-53.7-.96-.02-1.53 11.49-1.53 25.69z"/>
</svg>