<?xml version="1.0" encoding="UTF-8"?><svg xmlns="http://www.w3.org/2000/svg" viewBox="0 0 598.88 598.88"><defs><style>.d{fill:#fff;}.e{fill:red;}</style></defs><g id="a"/><g id="b"><g id="c"><g><circle class="e" cx="299.44" cy="299.44" r="299.44"/><g><path class="d" d="M266.56,227.14c46.37-88.39,39.42-147.21,33.16-170.88-.39,30.82-8.43,74.77-37.65,130.47-58.2,110.94-100.64,159.29-81.56,232.5,2.46-53.9,39.13-102.65,86.05-192.1Z"/><path class="d" d="M320.06,56.26s32.44,65.26-29.13,182.62c-61.57,117.36-105.55,164.66-77.65,245.47,27.9,80.81,166.43,84.66,209.72-33.67,0,0-89.95,91.93-114.96,26.46-26.41-69.13,142.86-132.76,71.67-256.38,0,0,17.62,38.63-93.31,159.69-43.72,47.71-14.43,99.09-14.43,99.09,0,0-44.2-42.49,16.41-132.92,60.61-90.43,125.97-174.93,31.69-290.37Z"/></g></g></g></g></svg>