<svg width="126" height="22" viewBox="0 0 126 22" fill="none" xmlns="http://www.w3.org/2000/svg">
<path d="M0.26 3.33H9.44V6.36H6.59V17.97H9.44V21H0.23V17.97H3.14V6.36H0.26V3.33ZM12.0102 21V18.27H14.5602V10.98L11.6802 9.99L12.5502 7.26L16.7202 8.7C17.5002 8.18 18.2902 7.77 19.0902 7.47C19.8902 7.17 20.8402 7.02 21.9402 7.02C23.1802 7.02 24.1802 7.26 24.9402 7.74C25.7202 8.22 26.2902 8.89 26.6502 9.75C27.0302 10.59 27.2202 11.55 27.2202 12.63V18.27H29.7102V21H22.5702V18.27H23.8302V13.08C23.8302 12.12 23.6202 11.37 23.2002 10.83C22.7802 10.27 22.0902 9.99 21.1302 9.99C20.5502 9.99 19.9702 10.09 19.3902 10.29C18.8302 10.49 18.3502 10.73 17.9502 11.01V18.27H19.1802V21H12.0102ZM34.3341 6.3C34.3341 4.48 34.8041 3.1 35.7441 2.16C36.6841 1.2 38.0741 0.719998 39.9141 0.719998C40.7541 0.719998 41.5341 0.829999 42.2541 1.05C42.9741 1.25 43.5841 1.56 44.0841 1.98L42.9141 4.35C42.0141 3.79 41.1341 3.51 40.2741 3.51C39.4541 3.51 38.8041 3.74 38.3241 4.2C37.8641 4.66 37.6341 5.39 37.6341 6.39V7.59H41.3541V10.29H37.6341V18.27H40.3341V21H31.8141V18.27H34.3341V10.29H31.8141V7.59H34.3341V6.3ZM48.5722 8.73C49.3922 8.17 50.1922 7.76 50.9722 7.5C51.7722 7.22 52.5522 7.08 53.3122 7.08C54.0722 7.08 54.7822 7.21 55.4422 7.47L55.9522 11.19L53.1322 11.79L52.8322 10.17C52.1722 10.23 51.5522 10.35 50.9722 10.53C50.4122 10.71 49.9322 10.95 49.5322 11.25L49.5022 18.27H52.4422V21H43.5922V18.27H46.1122V10.95L43.2322 9.99L44.1322 7.26L48.5722 8.73ZM67.4926 20.4C66.0926 21.18 64.6626 21.57 63.2026 21.57C61.3426 21.57 59.9226 21.21 58.9426 20.49C57.9826 19.77 57.5026 18.72 57.5026 17.34C57.4826 14.56 59.3126 13.17 62.9926 13.17H66.3526C66.3526 11.95 66.1026 11.06 65.6026 10.5C65.1026 9.92 64.4526 9.63 63.6526 9.63C63.2126 9.63 62.7926 9.66 62.3926 9.72C62.0126 9.78 61.6326 9.87 61.2526 9.99L60.9826 11.46L58.1626 11.07L58.7026 7.89C59.5026 7.61 60.3126 7.4 61.1326 7.26C61.9726 7.1 62.8426 7.02 63.7426 7.02C65.7026 7.02 67.1926 7.54 68.2126 8.58C69.2526 9.6 69.7726 11.11 69.7726 13.11V18.09L72.2926 18.9L71.3626 21.72L67.4926 20.4ZM63.0826 15.39C62.4026 15.39 61.8826 15.56 61.5226 15.9C61.1626 16.24 60.9826 16.71 60.9826 17.31C60.9826 18.45 61.7626 19.02 63.3226 19.02C64.4226 19.02 65.4326 18.73 66.3526 18.15V15.42L63.0826 15.39ZM80.0506 21.57C79.0706 21.57 78.2106 21.38 77.4706 21C76.7506 20.62 76.1906 20.03 75.7906 19.23C75.3906 18.43 75.1906 17.4 75.1906 16.14V10.29H72.7006V7.59H75.1906V5.01L78.4906 4.02V7.59H82.1206V10.29H78.4906V15.18C78.4906 16.32 78.6406 17.21 78.9406 17.85C79.2606 18.49 79.7806 18.81 80.5006 18.81C81.0606 18.81 81.7306 18.61 82.5106 18.21L83.1406 20.73C82.6806 20.95 82.1806 21.14 81.6406 21.3C81.1206 21.48 80.5906 21.57 80.0506 21.57ZM85.1316 7.59H91.0716V18.27H93.5616V21H85.1316V18.27H87.6216V10.29H85.1316V7.59ZM89.0316 1.08C89.6516 1.08 90.1516 1.27 90.5316 1.65C90.9116 2.03 91.1016 2.53 91.1016 3.15C91.1016 3.77 90.9116 4.27 90.5316 4.65C90.1516 5.03 89.6516 5.22 89.0316 5.22C88.4116 5.22 87.9116 5.03 87.5316 4.65C87.1716 4.27 86.9916 3.77 86.9916 3.15C86.9916 2.53 87.1716 2.03 87.5316 1.65C87.9116 1.27 88.4116 1.08 89.0316 1.08ZM93.5731 7.59H100.893V10.29H99.2731L101.343 15.24L102.423 18.03L103.503 15.24L105.603 10.29H103.983V7.59H111.153V10.29H109.143L104.283 21H100.533L95.7931 10.29H93.6031L93.5731 7.59ZM124.577 19.35C123.677 20.11 122.757 20.67 121.817 21.03C120.877 21.39 119.907 21.57 118.907 21.57C117.407 21.57 116.087 21.27 114.947 20.67C113.827 20.05 112.957 19.2 112.337 18.12C111.717 17.02 111.407 15.76 111.407 14.34C111.407 12.86 111.697 11.58 112.277 10.5C112.877 9.4 113.697 8.55 114.737 7.95C115.777 7.33 116.987 7.02 118.367 7.02C119.747 7.02 120.947 7.3 121.967 7.86C122.987 8.42 123.777 9.21 124.337 10.23C124.897 11.23 125.177 12.41 125.177 13.77C125.177 14.01 125.157 14.28 125.117 14.58C125.097 14.88 125.067 15.17 125.027 15.45H114.707C114.767 16.23 114.997 16.88 115.397 17.4C115.797 17.9 116.297 18.27 116.897 18.51C117.517 18.75 118.187 18.87 118.907 18.87C119.747 18.87 120.547 18.74 121.307 18.48C122.067 18.2 122.757 17.81 123.377 17.31L124.577 19.35ZM121.787 13.11C121.767 12.11 121.457 11.31 120.857 10.71C120.277 10.09 119.477 9.78 118.457 9.78C117.497 9.78 116.657 10.09 115.937 10.71C115.237 11.31 114.847 12.11 114.767 13.11H121.787Z" fill="white"/>
</svg>
